<svg xmlns="http://www.w3.org/2000/svg" viewBox="0 0 576 512"><!--! Font Awesome Free 6.7.2 by @fontawesome - https://fontawesome.com License - https://fontawesome.com/license/free (Icons: CC BY 4.0, Fonts: SIL OFL 1.1, Code: MIT License) Copyright 2024 Fonticons, Inc. --><path fill="#00d4ff" d="M547.6 103.8L490.3 13.1C485.2 5.4 477.3 0 468.5 0L107.5 0C98.7 0 90.8 5.4 85.7 13.1L28.4 103.8c-15.4 24.5-19.7 54.7-11.5 82.5C24.6 209.3 40.8 224 60.2 224l7.8 0 0 240c0 26.5 21.5 48 48 48l344 0c26.5 0 48-21.5 48-48l0-240 7.8 0c19.5 0 35.6-14.7 42.9-35.8c8.1-27.8 3.9-57.9-11.5-82.5zM416 464l-256 0 0-240 256 0 0 240zm-288 0l-64 0 0-240 64 0 0 240zm384 0l-64 0 0-240 64 0 0 240zM60.2 176c-5.3 0-10.2-3.5-11.8-8.7c-2.9-9.4-1.3-19.8 3.4-27.9L101.1 64l373.8 0 49.3 75.4c4.7 8.1 6.3 18.5 3.4 27.9c-1.7 5.2-6.5 8.7-11.8 8.7l-7.8 0c-8.8 0-16-7.2-16-16l0-48c0-8.8-7.2-16-16-16s-16 7.2-16 16l0 48c0 8.8-7.2 16-16 16s-16-7.2-16-16l0-48c0-8.8-7.2-16-16-16s-16 7.2-16 16l0 48c0 8.8-7.2 16-16 16l-80 0c-8.8 0-16-7.2-16-16l0-48c0-8.8-7.2-16-16-16s-16 7.2-16 16l0 48c0 8.8-7.2 16-16 16s-16-7.2-16-16l0-48c0-8.8-7.2-16-16-16s-16 7.2-16 16l0 48c0 8.8-7.2 16-16 16l-7.8 0z"/></svg>
